<?xml version="1.0" encoding="UTF-8" standalone="no"?>
<!-- Generator: Adobe Illustrator 22.0.1, SVG Export Plug-In . SVG Version: 6.00 Build 0)  -->

<svg
   version="1.1"
   id="Layer_1"
   x="0px"
   y="0px"
   viewBox="0 0 269.60025 256.00003"
   xml:space="preserve"
   sodipodi:docname="focalwordmark.svg"
   inkscape:version="1.1.1 (3bf5ae0d25, 2021-09-20, custom)"
   width="269.60025"
   height="256"
   xmlns:inkscape="http://www.inkscape.org/namespaces/inkscape"
   xmlns:sodipodi="http://sodipodi.sourceforge.net/DTD/sodipodi-0.dtd"
   xmlns="http://www.w3.org/2000/svg"
   xmlns:svg="http://www.w3.org/2000/svg"><defs
   id="defs75" /><sodipodi:namedview
   id="namedview73"
   pagecolor="#505050"
   bordercolor="#ffffff"
   borderopacity="1"
   inkscape:pageshadow="0"
   inkscape:pageopacity="0"
   inkscape:pagecheckerboard="1"
   showgrid="false"
   inkscape:zoom="1.9868173"
   inkscape:cx="121.29953"
   inkscape:cy="52.093366"
   inkscape:window-width="1728"
   inkscape:window-height="1051"
   inkscape:window-x="0"
   inkscape:window-y="0"
   inkscape:window-maximized="1"
   inkscape:current-layer="Layer_1"
   lock-margins="true"
   fit-margin-top="10"
   fit-margin-left="10"
   fit-margin-right="10"
   fit-margin-bottom="10" />
<style
   type="text/css"
   id="style2">
	.st0{fill:#E2761B;stroke:#E2761B;stroke-linecap:round;stroke-linejoin:round;}
	.st1{fill:#E4761B;stroke:#E4761B;stroke-linecap:round;stroke-linejoin:round;}
	.st2{fill:#D7C1B3;stroke:#D7C1B3;stroke-linecap:round;stroke-linejoin:round;}
	.st3{fill:#233447;stroke:#233447;stroke-linecap:round;stroke-linejoin:round;}
	.st4{fill:#CD6116;stroke:#CD6116;stroke-linecap:round;stroke-linejoin:round;}
	.st5{fill:#E4751F;stroke:#E4751F;stroke-linecap:round;stroke-linejoin:round;}
	.st6{fill:#F6851B;stroke:#F6851B;stroke-linecap:round;stroke-linejoin:round;}
	.st7{fill:#C0AD9E;stroke:#C0AD9E;stroke-linecap:round;stroke-linejoin:round;}
	.st8{fill:#161616;stroke:#161616;stroke-linecap:round;stroke-linejoin:round;}
	.st9{fill:#763D16;stroke:#763D16;stroke-linecap:round;stroke-linejoin:round;}
</style>















<path
   style="fill:#2b407e;fill-opacity:1;stroke:none;stroke-width:0.155832"
   d="M 34.97561,96.817624 H 18.677414 c -2.727446,0 -5.578017,-0.13002 -7.439077,2.109042 -2.3916417,2.877264 -0.874779,5.820604 0.822979,8.575394 2.216878,3.59718 4.372113,7.22808 6.570755,10.83491 0.989027,1.62253 2.007259,4.4205 3.532513,5.6277 0.912213,0.72187 3.740352,0.24122 4.903979,0.24122 -0.74649,5.17006 -2.871223,10.46232 -4.332575,15.49995 -2.367756,8.16261 -4.638854,16.35111 -6.944482,24.52906 -1.338712,4.74825 -2.986123,9.48883 -4.052925,14.29607 h 18.718718 c 3.327249,0 6.786504,0.26997 9.520729,-1.85488 2.943677,-2.28751 3.56785,-6.14219 4.49959,-9.4315 1.454574,-5.13529 3.06874,-10.24155 4.630462,-15.34947 0.648217,-2.12048 0.950137,-5.18479 2.210745,-7.05051 0.612396,-0.90638 3.139259,-0.47372 4.150556,-0.47372 2.983535,0 5.628036,-0.2316 7.90688,-2.26331 2.677585,-2.38714 3.231398,-5.95423 4.094562,-9.17356 1.479422,-5.51678 3.386956,-10.9845 4.619487,-16.55336 H 38.36434 c 0.267552,-2.86071 1.532194,-5.96312 2.373733,-8.72813 0.22882,-0.75212 0.33855,-2.39331 1.082617,-2.855 0.598517,-0.37154 1.824427,-0.15469 2.514281,-0.15469 h 6.616094 17.427776 c 2.810064,0 6.192828,0.47914 8.875253,-0.40616 4.749553,-1.56761 5.806028,-5.478099 7.053247,-9.525852 0.925119,-3.002165 1.886399,-6.006305 2.730348,-9.029094 0.568984,-2.038016 1.793451,-4.358041 1.826042,-6.470861 0.03968,-2.569532 -3.497491,-1.956297 -5.316273,-1.956297 H 65.958318 49.982857 c -2.682426,0 -5.557199,-0.389754 -7.907046,1.069198 -2.594801,1.610938 -3.147001,4.27844 -3.852342,6.906507 -1.025009,3.818401 -2.633855,7.6955 -3.247859,11.587343 m 47.2809,-11.737834 -2.488457,8.276676 -1.166855,3.199008 -2.476683,0.26215 H 69.669787 43.850865 c 0.393414,-2.724531 1.465224,-5.473437 2.234786,-8.126195 0.301599,-1.0397 0.403582,-2.459675 1.368406,-3.182153 0.780536,-0.584486 1.918347,-0.429486 2.85154,-0.429486 h 6.454727 25.496186 m -49.540056,19.71354 c -0.844604,2.79646 -1.58254,5.62271 -2.396159,8.42715 -0.221073,0.7625 -0.346457,2.52319 -1.075356,3.00549 -1.557848,1.03083 -2.600448,-0.83444 -3.189927,-1.8016 -1.844923,-3.02656 -4.73003,-6.44092 -5.763915,-9.78153 h 8.22978 l 4.195577,0.15049 m 24.689343,73.73764 h 33.403229 c 4.143617,0 10.395684,1.09103 14.039054,-1.04603 2.09989,-1.2317 2.67484,-3.19072 3.29578,-5.27434 1.04148,-3.49471 2.02953,-7.01606 2.9771,-10.53395 2.76632,-10.26879 5.79085,-20.4795 8.75873,-30.69894 1.37922,-4.74871 3.46748,-9.72404 4.17121,-14.59705 H 92.261352 c -4.477983,0 -10.222045,-0.93284 -14.200417,1.36431 -5.745355,3.31729 -6.455699,11.66845 -8.049692,17.29584 -2.490074,8.79058 -5.142488,17.54158 -7.621749,26.33488 -1.609486,5.70848 -3.056152,11.53347 -4.983697,17.15528 m 51.960593,0 h 33.24187 c 4.57801,0 10.41147,0.93858 14.20039,-2.00536 3.05793,-2.3751 3.65177,-5.86966 4.57802,-9.28102 0.65515,-2.40776 1.49911,-4.79098 2.03808,-7.22327 h -6.6161 c -0.58254,0 -1.81216,-0.21745 -2.23656,0.24123 -0.44861,0.48486 -0.55995,1.55496 -0.72777,2.16653 -0.4712,1.70575 -0.92303,3.41632 -1.41681,5.11649 -0.32759,1.13029 -0.64064,2.33162 -1.91222,2.84582 -0.84395,0.341 -2.00419,0.16388 -2.90464,0.16388 h -5.9706 -21.13925 c 2.78457,-11.32701 6.63821,-22.45297 9.7418,-33.70864 0.80427,-2.9167 1.68227,-5.81564 2.50347,-8.72812 0.32467,-1.15137 0.51848,-2.77164 1.63934,-3.50585 0.79087,-0.51797 1.82265,-0.40677 2.73632,-0.40677 h 5.64788 21.94609 l -2.58189,9.33007 c 2.10747,0 4.18751,-0.15048 6.29336,-0.15048 0.65676,0 1.93642,0.22601 2.49153,-0.15471 0.90527,-0.62165 1.11989,-3.22384 1.40551,-4.20936 1.16831,-4.02503 3.16284,-8.48916 3.52589,-12.64075 h -31.30542 c -4.50751,0 -10.29079,-0.933 -14.36178,1.2102 -5.70695,3.00474 -6.37067,10.56195 -7.88832,15.9451 -2.76134,9.79356 -5.57093,19.58787 -8.4783,29.34458 -1.51137,5.07164 -3.69695,10.43583 -4.44989,15.65043 m 52.44468,0 h 6.13199 c 0.61481,0 1.78796,0.20813 2.30757,-0.1547 0.46797,-0.3279 0.55511,-1.16189 0.71325,-1.65111 0.46797,-1.45444 0.95691,-2.90376 1.4039,-4.36407 1.46845,-4.79791 2.88041,-9.61734 4.22947,-14.44656 0.4712,-1.68619 0.7471,-4.75789 2.18815,-5.96011 1.71372,-1.43006 6.03843,-0.66123 8.19912,-0.66123 h 22.43017 l -1.86865,6.77182 -3.59847,12.79123 -2.11719,7.67473 h 8.87528 l 3.56947,-12.79122 9.15926,-32.05331 3.15316,-10.98541 1.70727,-6.32037 h -33.72598 -8.39117 c -1.86382,0 -3.6711,-0.13106 -5.32517,0.82286 -1.91863,1.10621 -2.32369,3.15793 -2.84492,5.04606 -0.94236,3.41752 -1.92508,6.84014 -2.96434,10.23298 -2.92235,9.53894 -5.44938,19.18428 -8.29753,28.74264 -1.67016,5.60361 -4.10199,11.54521 -4.93464,17.30577 m 70.0338,-61.99982 -6.63544,23.17469 -11.11505,38.82513 h 45.50588 v -7.9757 h -34.21007 l 1.63303,-6.0194 3.38873,-11.88832 10.30819,-36.1164 h -8.87527 m -166.854766,7.67474 c -0.670967,3.03122 -1.624817,6.04739 -2.513468,9.02911 -0.255287,0.8567 -0.344198,2.65575 -1.234307,3.15595 -0.94901,0.53333 -3.071161,0.1547 -4.159266,0.1547 -4.160078,0 -9.172334,-0.83879 -12.234135,2.40792 -2.39277,2.53733 -2.977568,7.33343 -3.883972,10.5338 -1.987736,7.01742 -4.735033,13.96139 -6.312085,21.0679 h -11.77988 c 0.721797,-4.57489 2.552847,-9.2276 3.848469,-13.69413 3.134094,-10.80467 6.796509,-21.69497 9.222358,-32.65525 h 29.046286 m 47.926386,0 c -0.58754,4.06881 -2.30224,8.23274 -3.48168,12.18929 -2.20316,7.39182 -4.30579,14.82894 -6.30159,22.27178 -0.72858,2.71745 -1.56705,5.40948 -2.29886,8.12619 -0.3308,1.22796 -0.52283,2.76591 -1.796196,3.48252 -0.779408,0.43867 -1.871222,0.2796 -2.742612,0.2796 h -5.809258 -21.78472 c 0.32968,-3.76453 2.143455,-7.7885 3.203001,-11.43686 2.228013,-7.67158 4.491849,-15.33758 6.659183,-23.02421 0.778604,-2.76186 1.6345,-5.50744 2.381311,-8.27668 0.301438,-1.11734 0.491046,-2.67577 1.636599,-3.33203 0.772311,-0.44227 1.874775,-0.2796 2.740836,-0.2796 h 5.809263 21.784723 m 104.24391,0 c -0.071,1.52818 -0.73424,3.04341 -1.14895,4.51455 -0.87625,3.11188 -1.81701,6.21098 -2.66422,9.33007 -0.39372,1.45293 -0.64542,4.02999 -2.02676,4.97051 -0.8343,0.56884 -1.89931,0.44695 -2.87397,0.44695 h -5.48654 c -7.36806,0 -14.75225,0.15048 -22.10746,0.15048 0.0385,-1.66091 0.80364,-3.3698 1.26675,-4.96601 0.90047,-3.1072 1.75085,-6.22872 2.67391,-9.33006 0.42115,-1.41004 0.60998,-3.81435 2.03644,-4.66428 2.01713,-1.20193 6.22396,-0.45221 8.54605,-0.45221 H 217.1604 M 83.547458,154.45338 h 6.938836 c 0.95498,0 2.200577,0.18509 3.049052,-0.31437 1.09424,-0.64423 1.280947,-2.51882 1.570439,-3.59824 0.886243,-3.30541 2.506208,-6.83925 2.803456,-10.23299 h -6.454738 c -1.052121,0 -2.288528,-0.11678 -3.224946,0.42949 -1.301436,0.7595 -1.491046,2.65786 -1.837829,3.93458 -0.888488,3.27124 -1.856378,6.5351 -2.84427,9.78153 z"
   id="path1370" /></svg>
