<?xml version="1.0" encoding="UTF-8" standalone="no"?>
<!-- Generator: Adobe Illustrator 22.0.1, SVG Export Plug-In . SVG Version: 6.00 Build 0)  -->

<svg
   version="1.1"
   id="Layer_1"
   x="0px"
   y="0px"
   viewBox="0 0 276 257.39996"
   xml:space="preserve"
   sodipodi:docname="metamask.svg"
   width="276"
   height="257.39996"
   inkscape:version="1.1.1 (3bf5ae0d25, 2021-09-20, custom)"
   xmlns:inkscape="http://www.inkscape.org/namespaces/inkscape"
   xmlns:sodipodi="http://sodipodi.sourceforge.net/DTD/sodipodi-0.dtd"
   xmlns="http://www.w3.org/2000/svg"
   xmlns:svg="http://www.w3.org/2000/svg"><defs
   id="defs905" /><sodipodi:namedview
   id="namedview903"
   pagecolor="#505050"
   bordercolor="#ffffff"
   borderopacity="1"
   inkscape:pageshadow="0"
   inkscape:pageopacity="0"
   inkscape:pagecheckerboard="1"
   showgrid="false"
   fit-margin-top="10"
   lock-margins="true"
   fit-margin-left="10"
   fit-margin-right="10"
   fit-margin-bottom="10"
   inkscape:zoom="1.9868173"
   inkscape:cx="110.22654"
   inkscape:cy="134.13413"
   inkscape:window-width="1728"
   inkscape:window-height="1051"
   inkscape:window-x="0"
   inkscape:window-y="0"
   inkscape:window-maximized="1"
   inkscape:current-layer="Layer_1" />
<style
   type="text/css"
   id="style832">
	.st0{fill:#E2761B;stroke:#E2761B;stroke-linecap:round;stroke-linejoin:round;}
	.st1{fill:#E4761B;stroke:#E4761B;stroke-linecap:round;stroke-linejoin:round;}
	.st2{fill:#D7C1B3;stroke:#D7C1B3;stroke-linecap:round;stroke-linejoin:round;}
	.st3{fill:#233447;stroke:#233447;stroke-linecap:round;stroke-linejoin:round;}
	.st4{fill:#CD6116;stroke:#CD6116;stroke-linecap:round;stroke-linejoin:round;}
	.st5{fill:#E4751F;stroke:#E4751F;stroke-linecap:round;stroke-linejoin:round;}
	.st6{fill:#F6851B;stroke:#F6851B;stroke-linecap:round;stroke-linejoin:round;}
	.st7{fill:#C0AD9E;stroke:#C0AD9E;stroke-linecap:round;stroke-linejoin:round;}
	.st8{fill:#161616;stroke:#161616;stroke-linecap:round;stroke-linejoin:round;}
	.st9{fill:#763D16;stroke:#763D16;stroke-linecap:round;stroke-linejoin:round;}
</style>
<polygon
   class="st0"
   points="174.6,109.4 193,65.8 274.1,35.5 "
   id="polygon834"
   transform="translate(-21.300002,-25.000031)" />
<g
   id="g850"
   transform="translate(-21.300002,-25.000031)">
	<polygon
   class="st1"
   points="143.1,110.1 125.6,65.8 44.4,35.5 "
   id="polygon836" />
	<polygon
   class="st1"
   points="238.3,206.8 211.8,247.4 268.5,263 284.8,207.7 "
   id="polygon838" />
	<polygon
   class="st1"
   points="33.9,207.7 50.1,263 106.8,247.4 80.3,206.8 "
   id="polygon840" />
	<polygon
   class="st1"
   points="103.6,138.2 87.8,162.1 144.1,164.6 142.1,104.1 "
   id="polygon842" />
	<polygon
   class="st1"
   points="214.9,138.2 175.9,103.4 174.6,164.6 230.8,162.1 "
   id="polygon844" />
	<polygon
   class="st1"
   points="140.6,230.9 111.4,208.1 106.8,247.4 "
   id="polygon846" />
	<polygon
   class="st1"
   points="211.8,247.4 207.1,208.1 177.9,230.9 "
   id="polygon848" />
</g>
<g
   id="g856"
   transform="translate(-21.300002,-25.000031)">
	<polygon
   class="st2"
   points="211.8,247.4 177.9,230.9 180.6,253 180.3,262.3 "
   id="polygon852" />
	<polygon
   class="st2"
   points="106.8,247.4 138.3,262.3 138.1,253 140.6,230.9 "
   id="polygon854" />
</g>
<polygon
   class="st3"
   points="110.6,185.2 130.5,176.1 138.8,193.5 "
   id="polygon858"
   transform="translate(-21.300002,-25.000031)" />
<polygon
   class="st3"
   points="188,176.1 208,185.2 179.7,193.5 "
   id="polygon860"
   transform="translate(-21.300002,-25.000031)" />
<g
   id="g870"
   transform="translate(-21.300002,-25.000031)">
	<polygon
   class="st4"
   points="111.6,206.8 80.3,207.7 106.8,247.4 "
   id="polygon862" />
	<polygon
   class="st4"
   points="211.8,247.4 238.3,207.7 207,206.8 "
   id="polygon864" />
	<polygon
   class="st4"
   points="208.1,185.2 230.8,162.1 174.6,164.6 179.8,193.5 188.1,176.1 "
   id="polygon866" />
	<polygon
   class="st4"
   points="87.8,162.1 110.6,185.2 130.6,176.1 138.8,193.5 144.1,164.6 "
   id="polygon868" />
</g>
<g
   id="g880"
   transform="translate(-21.300002,-25.000031)">
	<polygon
   class="st5"
   points="111.4,208.1 110.6,185.2 87.8,162.1 "
   id="polygon872" />
	<polygon
   class="st5"
   points="207.1,208.1 230.8,162.1 208.1,185.2 "
   id="polygon874" />
	<polygon
   class="st5"
   points="144.1,164.6 138.8,193.5 145.4,227.6 146.9,182.7 "
   id="polygon876" />
	<polygon
   class="st5"
   points="174.6,164.6 171.9,182.6 173.1,227.6 179.8,193.5 "
   id="polygon878" />
</g>
<polygon
   class="st6"
   points="208.1,185.2 179.8,193.5 173.1,227.6 177.9,230.9 207.1,208.1 "
   id="polygon882"
   transform="translate(-21.300002,-25.000031)" />
<polygon
   class="st6"
   points="138.8,193.5 110.6,185.2 111.4,208.1 140.6,230.9 145.4,227.6 "
   id="polygon884"
   transform="translate(-21.300002,-25.000031)" />
<polygon
   class="st7"
   points="138.1,253 138.3,262.3 106.8,247.4 117.8,256.4 140.1,271.9 178.4,271.9 200.8,256.4 211.8,247.4 180.3,262.3 180.6,253 178.1,250.8 140.4,250.8 "
   id="polygon886"
   transform="translate(-21.300002,-25.000031)" />
<polygon
   class="st8"
   points="138.1,253 140.4,250.8 178.1,250.8 180.6,253 177.9,230.9 173.1,227.6 145.4,227.6 140.6,230.9 "
   id="polygon888"
   transform="translate(-21.300002,-25.000031)" />
<g
   id="g894"
   transform="translate(-21.300002,-25.000031)">
	<polygon
   class="st9"
   points="214.9,138.2 267.2,153.5 278.8,140 273.8,136.4 281.8,129.1 275.6,124.3 283.6,118.2 278.3,114.2 286.8,73.4 274.1,35.5 177.9,106.9 "
   id="polygon890" />
	<polygon
   class="st9"
   points="36.8,129.1 44.8,136.4 39.8,140 51.3,153.5 103.6,138.2 140.6,106.9 44.4,35.5 31.8,73.4 40.3,114.2 34.9,118.2 42.9,124.3 "
   id="polygon892" />
</g>
<polygon
   class="st6"
   points="238.3,207.7 284.8,207.7 267.2,153.5 214.9,138.2 230.8,162.1 207.1,208.1 "
   id="polygon896"
   transform="translate(-21.300002,-25.000031)" />
<polygon
   class="st6"
   points="111.4,208.1 87.8,162.1 103.6,138.2 51.3,153.5 33.9,207.7 80.3,207.7 "
   id="polygon898"
   transform="translate(-21.300002,-25.000031)" />
<polygon
   class="st6"
   points="140.6,106.9 144.1,164.6 145.3,182.8 145.4,227.6 173.1,227.6 173.3,182.8 174.6,164.6 177.9,106.9 193.1,65.8 125.6,65.8 "
   id="polygon900"
   transform="translate(-21.300002,-25.000031)" />
</svg>
